{"glyphs":{":":{"x_min":0,"x_max":187,"ha":187,"o":"m 115 452 b 115 461 106 470 97 470 b 83 470 68 437 68 426 b 68 419 73 416 79 416 b 95 416 115 437 115 452 z m 63 357 b 63 366 54 375 45 375 b 31 375 16 342 16 331 b 16 324 21 321 27 321 b 43 321 63 342 63 357 z"},"$":{"x_min":0,"x_max":454,"ha":454,"o":"m 417 763 b 432 790 454 819 465 847 b 465 854 458 858 451 859 b 437 859 410 807 404 793 b 378 735 233 766 233 677 b 233 640 268 615 294 593 l 290 587 b 270 549 141 289 120 284 b 93 278 59 270 31 270 b 21 270 11 274 1 276 b 29 319 67 353 102 390 l 97 390 b 53 390 -27 326 -27 280 b -27 244 14 240 41 240 b 66 240 87 244 112 248 b 86 194 55 141 30 87 l 33 67 b 35 65 37 64 40 64 b 53 64 128 217 140 239 b 166 288 394 350 394 472 b 394 518 351 558 322 589 b 348 638 374 687 401 736 l 413 745 b 417 746 422 747 427 747 b 452 747 476 731 487 709 b 490 711 498 720 498 724 b 498 752 437 759 417 763 z m 312 570 b 339 543 367 512 367 472 b 367 411 233 315 177 309 z m 301 606 b 285 624 252 652 252 677 b 252 720 342 739 374 743 b 351 697 326 651 301 606 z"},"?":{"x_min":0,"x_max":378,"ha":378,"o":"m 134 510 b 121 523 95 542 95 562 b 95 649 282 706 350 706 b 368 706 406 706 406 680 b 406 600 105 410 56 311 l 59 292 l 78 298 b 180 401 294 491 395 595 b 415 615 440 653 440 682 b 440 729 382 739 346 739 b 253 739 63 673 63 559 b 63 530 83 506 113 506 b 120 506 127 507 134 510 z m 33 202 b 48 209 55 216 61 231 b 61 235 60 238 58 240 l 49 245 b 40 245 17 225 17 216 b 17 207 26 203 33 202 z"},"'":{"x_min":0,"x_max":145,"ha":145,"o":"m 67 682 b 104 698 126 732 137 769 l 131 785 l 117 776 b 98 747 81 716 62 686 z"},"=":{"x_min":0,"x_max":442,"ha":442,"o":"m 28 349 b 78 348 321 355 351 376 b 334 385 315 390 295 390 b 213 390 124 385 44 371 b 31 369 26 363 28 349 z m 52 451 b 60 441 71 435 85 435 b 136 435 343 438 376 461 b 352 464 328 469 304 469 b 234 469 115 471 52 451 z"},"a":{"x_min":0,"x_max":332,"ha":332,"o":"m 217 462 b 208 479 191 486 173 486 b 118 486 -9 418 -9 357 b -9 343 2 333 16 333 b 55 333 129 381 168 398 b 169 385 163 372 163 359 b 163 335 177 324 200 324 b 242 324 310 352 341 380 l 330 381 b 285 381 234 352 185 349 b 188 402 228 426 253 467 b 251 470 245 475 241 475 b 233 475 226 464 217 462 z m 191 450 b 139 415 85 382 26 362 b 42 413 119 452 170 452 b 177 452 184 452 191 450 z"},"L":{"x_min":0,"x_max":534,"ha":534,"o":"m 504 230 b 375 209 266 79 55 79 b 28 79 7 95 7 123 b 7 242 248 577 323 678 b 330 688 338 698 343 709 l 338 727 b 250 651 -22 248 -22 123 b -22 62 25 46 77 46 b 216 46 398 142 506 225 z"},"3":{"x_min":0,"x_max":532,"ha":532,"o":"m 136 686 b 161 731 267 735 316 735 b 344 735 445 732 456 706 b 451 664 284 618 284 566 b 284 521 445 502 445 449 b 445 361 188 281 117 281 b 79 281 27 291 27 338 b 27 355 33 372 38 388 b 12 371 -3 352 -3 320 b -3 259 82 247 127 247 b 222 247 481 336 481 450 b 481 512 352 546 304 570 b 338 594 479 668 479 705 b 479 754 354 756 321 756 b 291 756 124 745 124 705 b 124 697 131 691 136 686 z"},";":{"x_min":0,"x_max":187,"ha":187,"o":"m 4 251 b 37 263 74 298 76 335 l 69 351 l 52 341 b 32 314 17 281 4 251 z m 115 452 b 115 461 106 470 97 470 b 83 470 68 437 68 426 b 68 419 73 416 79 416 b 95 416 115 437 115 452 z"},"J":{"x_min":0,"x_max":743,"ha":743,"o":"m 401 331 b 427 331 487 322 509 329 l 521 345 b 509 373 469 364 443 364 b 297 364 5 356 5 152 b 5 63 80 -18 171 -18 b 403 -18 666 436 750 604 b 753 610 755 616 757 622 l 751 641 b 710 618 422 15 169 15 b 94 15 37 84 37 156 b 37 313 286 331 401 331 z m 208 596 b 233 588 258 585 285 585 b 408 585 791 651 875 745 l 875 765 l 856 772 b 835 761 817 744 796 732 b 676 665 424 627 286 618 b 257 616 233 617 207 603 z"},"V":{"x_min":0,"x_max":574,"ha":574,"o":"m -5 261 b -5 208 10 140 76 140 b 256 140 722 710 830 841 b 833 845 836 850 839 855 l 837 873 l 820 873 b 795 858 635 664 603 627 b 526 536 200 171 76 171 b 44 171 29 206 29 234 b 29 368 75 495 120 619 b 121 623 127 637 127 640 b 127 651 118 651 110 651 b 105 651 99 633 97 629 b 55 532 -5 366 -5 261 z"},"\"":{"x_min":0,"x_max":217,"ha":217,"o":"m 67 682 b 104 698 126 732 137 769 l 131 785 l 117 776 b 98 747 81 716 62 686 z m 124 682 b 161 698 183 732 194 769 l 188 785 l 174 776 b 155 747 138 716 119 686 z"},"7":{"x_min":0,"x_max":438,"ha":438,"o":"m 176 427 b 274 541 402 648 531 725 b 538 729 546 733 552 739 b 557 743 565 751 565 758 b 565 775 528 774 516 774 b 476 774 149 770 138 765 b 135 764 128 754 126 752 l 138 743 b 155 741 173 739 190 739 b 302 739 385 743 497 743 b 356 647 268 558 151 433 b 128 409 65 398 31 387 b 26 385 13 382 13 375 b 13 370 16 361 23 361 b 29 361 96 381 107 384 b 89 360 -1 230 -1 208 b -1 205 0 201 1 198 b 11 208 20 220 28 232 b 164 420 98 387 330 426 b 311 434 291 438 271 438 b 239 438 208 431 176 427 z"},"S":{"x_min":0,"x_max":685,"ha":685,"o":"m 144 73 b 296 103 574 214 574 360 b 574 518 189 489 189 566 b 189 640 447 699 505 699 b 524 699 584 689 584 665 b 584 646 567 631 560 615 l 562 598 b 565 597 573 593 576 593 b 602 593 615 623 615 645 b 615 700 542 721 498 721 b 423 721 164 658 164 565 b 164 463 540 487 540 366 b 540 232 203 104 92 104 b 77 104 20 110 20 131 b 20 182 179 233 190 255 l 178 271 b 174 272 170 273 167 273 b 120 273 -19 182 -19 131 b -19 77 50 71 144 73 z"},"Z":{"x_min":0,"x_max":715,"ha":715,"o":"m 71 552 b 196 591 318 649 452 649 b 470 649 516 649 516 624 b 516 508 -68 147 -68 99 b -68 84 -57 77 -42 77 b -23 77 2 86 20 92 b 228 163 434 207 649 252 b 653 253 662 259 665 261 l 604 262 b 402 262 175 171 -17 112 l -20 117 b 73 186 547 513 547 628 b 547 673 492 679 458 679 b 403 679 68 620 68 564 b 68 560 69 556 71 552 z"},"x":{"x_min":0,"x_max":233,"ha":233,"o":"m 65 428 b 2 376 -69 328 -118 263 l -106 259 b -100 259 53 387 73 402 b 103 347 112 284 138 227 l 139 247 b 139 308 112 364 93 420 b 156 464 219 509 283 551 b 305 565 330 572 352 586 l 356 600 l 343 607 b 291 595 134 478 83 441 b 71 462 60 490 43 507 l 31 509 l 28 497 b 41 475 53 451 65 428 z"},")":{"x_min":0,"x_max":295,"ha":295,"o":"m -100 99 b 112 117 258 385 258 579 b 258 659 229 845 154 888 l 144 886 l 141 874 b 203 779 227 714 227 597 b 227 339 95 233 -100 99 z"},"&":{"x_min":0,"x_max":578,"ha":578,"o":"m 298 330 b 320 303 367 249 399 239 l 415 247 l 413 262 b 386 291 355 313 330 346 b 396 378 464 406 534 427 l 507 428 b 437 428 372 400 310 370 b 278 413 248 458 228 508 b 284 555 504 730 504 794 b 504 836 454 842 423 842 b 302 842 175 753 175 624 b 175 585 183 547 187 509 b 132 475 -12 311 -12 244 b -12 225 2 211 21 211 b 74 211 265 314 298 330 z m 217 542 b 211 567 207 593 207 618 b 207 734 312 814 422 814 b 437 814 473 811 473 791 b 473 750 258 575 217 542 z m 275 356 b 233 325 70 245 21 245 l 17 245 b 36 311 144 442 201 480 z"},"_":{"x_min":0,"x_max":546,"ha":546,"o":"m 386 259 b 370 274 350 279 328 279 b 209 279 94 264 -23 247 b -35 245 -47 246 -47 230 b -47 225 -39 220 -35 220 b -29 220 -24 222 -18 223 b 83 240 187 250 290 250 b 322 250 355 245 386 259 z"},"v":{"x_min":0,"x_max":243,"ha":243,"o":"m 292 535 b 240 505 77 350 32 350 b 23 350 17 354 17 364 b 17 391 41 423 52 449 l 52 466 l 36 460 b 18 435 -6 396 -6 364 b -6 343 7 326 30 326 b 102 326 249 475 295 531 z"},"O":{"x_min":0,"x_max":639,"ha":639,"o":"m 304 633 b 190 517 3 359 3 180 b 3 114 45 82 108 82 b 316 82 613 398 613 596 b 613 691 540 700 466 711 l 552 767 b 479 750 424 707 356 684 b 310 669 59 564 59 519 b 59 515 60 511 62 508 b 140 559 216 600 301 639 z m 477 684 b 527 684 583 659 583 602 b 583 426 291 119 112 119 b 67 119 42 132 42 180 b 42 329 333 684 477 684 z"},"(":{"x_min":0,"x_max":207,"ha":207,"o":"m 381 885 b 378 888 372 892 367 892 b 356 892 317 862 307 854 b 161 740 25 510 25 321 b 25 216 59 126 167 94 b 103 168 62 216 62 320 b 62 384 79 448 102 508 b 147 623 211 731 301 815 b 323 836 349 853 371 873 b 375 876 378 881 381 885 z"},"C":{"x_min":0,"x_max":833,"ha":833,"o":"m 714 611 b 736 611 780 659 780 685 b 780 738 721 737 688 737 b 488 737 0 473 0 207 b 0 76 119 46 211 46 b 385 46 558 128 698 240 b 716 254 747 287 753 311 l 749 316 b 565 198 429 83 206 83 b 134 83 29 102 29 208 b 29 466 521 709 708 709 b 725 709 742 703 753 687 b 748 654 716 640 704 612 z"},"W":{"x_min":0,"x_max":910,"ha":910,"o":"m 890 649 l 884 637 b 810 456 724 355 551 260 b 530 248 500 239 475 239 b 449 239 442 256 442 280 b 442 374 525 499 525 531 b 525 542 519 545 509 545 b 482 545 131 161 24 161 b 18 161 14 171 14 175 b 14 316 239 569 336 664 b 379 706 416 724 469 748 l 475 760 l 465 767 b 329 757 -13 323 -13 183 b -13 156 0 134 29 134 b 120 134 395 407 465 476 l 465 467 b 465 447 410 363 410 290 b 410 238 427 205 483 205 b 636 205 897 471 897 627 l 896 650 z"},"A":{"x_min":0,"x_max":919,"ha":919,"o":"m 685 424 b 724 485 849 691 849 756 b 849 783 829 799 803 799 b 682 799 339 480 256 405 b 218 371 65 372 5 350 l -2 337 l 9 327 l 23 326 b 75 326 135 340 187 346 b 171 303 45 199 12 98 b 27 102 30 103 39 116 b 95 196 160 269 228 338 b 238 348 250 355 264 356 b 381 365 497 376 614 383 b 607 369 384 33 384 7 b 384 -1 387 -7 391 -14 b 395 -15 399 -17 403 -17 b 408 -17 413 -16 417 -15 b 454 15 469 84 489 118 b 509 152 652 384 672 387 b 704 392 743 392 776 392 b 798 392 908 375 908 406 b 908 424 886 428 873 428 b 810 428 748 424 685 424 z m 293 402 b 379 476 704 770 801 770 b 812 770 818 764 818 752 b 818 732 806 701 796 683 b 754 609 710 537 666 464 b 635 413 648 421 588 417 b 490 410 393 401 295 394 z"},"f":{"x_min":0,"x_max":251,"ha":251,"o":"m 278 721 b 265 721 230 666 221 654 b 161 573 102 492 42 411 b 18 379 -40 368 -40 333 b -40 311 -30 306 -43 284 b -77 227 -186 63 -186 3 b -186 -20 -184 -36 -157 -36 b -74 -36 38 121 38 200 b 38 241 18 266 0 300 b 15 326 30 362 64 362 b 111 362 204 363 263 365 l 267 376 l 257 383 b 199 379 138 381 55 380 b 124 490 224 607 285 712 l 284 720 z m -160 -5 b -160 50 -53 221 -18 272 b -3 252 9 229 9 204 b 9 111 -80 22 -160 -12 z"},"Q":{"x_min":0,"x_max":651,"ha":651,"o":"m 308 158 b 431 234 585 361 585 521 b 585 649 475 678 373 697 b 411 731 462 754 506 780 l 516 794 l 500 802 b 430 786 380 715 313 693 b 273 680 230 672 193 652 l 205 652 b 225 652 244 658 264 658 b 271 658 278 657 285 656 b 184 566 10 381 10 235 b 10 202 21 171 43 147 l 46 139 b 28 136 -51 125 -51 104 b -51 102 -51 101 -50 100 l -40 94 b 76 106 191 121 308 121 b 375 121 442 109 508 109 b 521 109 534 110 547 114 b 472 156 390 147 308 158 z m 146 146 b 85 147 39 162 39 235 b 39 380 214 549 311 646 b 321 656 333 663 347 663 b 436 663 550 628 550 521 b 550 361 355 199 215 156 b 193 149 169 148 146 144 z"},"w":{"x_min":0,"x_max":337,"ha":337,"o":"m 110 414 b 107 395 102 375 102 355 b 102 337 112 321 132 321 b 192 321 317 445 348 491 b 317 470 167 347 140 347 b 135 347 130 348 126 351 b 126 384 147 414 147 444 b 147 453 139 461 130 461 b 123 461 45 393 32 383 l 28 388 b 43 412 64 439 74 466 l 72 481 l 54 480 b 44 471 -4 384 -8 369 b -7 362 -8 351 -2 346 b 1 345 6 343 10 343 b 35 343 90 397 110 414 z"},"-":{"x_min":0,"x_max":444,"ha":444,"o":"m 23 412 b 27 402 38 399 48 399 l 91 399 b 178 399 279 396 364 413 l 380 425 b 368 436 353 441 337 441 b 260 441 34 435 23 412 z"},"E":{"x_min":0,"x_max":833,"ha":833,"o":"m 803 305 b 588 229 388 140 157 140 b 127 140 28 143 28 191 b 28 311 447 424 529 444 b 545 449 597 454 597 478 b 597 499 582 498 567 499 b 514 505 233 542 216 592 b 247 657 549 680 618 680 b 694 680 805 681 876 651 l 895 657 l 885 676 b 829 703 674 710 608 710 b 541 710 183 688 183 592 b 183 521 427 483 481 474 b 406 421 -5 359 -5 191 b -5 110 106 106 159 106 b 371 106 638 176 813 303 z"},"s":{"x_min":0,"x_max":191,"ha":191,"o":"m 194 496 b 201 502 209 510 209 520 b 209 542 175 558 156 558 b 114 558 14 514 14 464 b 14 410 100 387 100 353 b 100 306 -96 273 -131 270 b -143 269 -160 266 -160 251 b -160 238 -144 235 -134 235 b -80 235 132 277 132 352 b 132 406 45 427 45 463 b 45 494 128 527 154 527 b 173 527 185 511 194 496 z"},"l":{"x_min":0,"x_max":192,"ha":192,"o":"m 196 380 b 170 369 48 307 31 307 b 20 307 13 318 13 328 b 13 408 271 691 329 755 l 301 759 b 276 744 250 730 236 703 b 184 605 -14 436 -14 321 b -14 297 0 280 26 280 b 90 280 155 336 200 376 z"},"8":{"x_min":0,"x_max":356,"ha":356,"o":"m 296 650 l 296 715 b 296 729 306 756 327 756 b 339 756 350 748 360 743 l 372 743 l 376 752 b 368 767 352 776 332 776 b 269 776 275 702 275 667 b 275 644 279 632 259 614 b 187 551 -42 367 -42 282 b -42 244 -2 228 39 228 l 52 229 b 223 250 309 363 309 498 b 309 532 301 566 301 599 b 301 629 460 743 493 776 b 424 739 361 695 303 649 z m 279 592 b 283 565 286 537 286 509 b 286 388 209 271 54 252 b 50 251 44 250 40 250 b 16 250 -15 258 -15 282 b -15 350 210 541 273 594 z"},"e":{"x_min":0,"x_max":266,"ha":266,"o":"m 271 382 b 182 348 88 338 46 349 b 29 353 14 367 28 386 b 31 390 35 392 42 393 b 78 396 204 427 207 464 b 208 479 193 487 179 487 b 122 491 -3 427 -7 371 b -13 284 205 312 274 379 z m 80 420 b 101 444 141 464 170 452 z"},"b":{"x_min":0,"x_max":273,"ha":273,"o":"m 46 362 b 55 345 69 330 89 330 b 158 330 270 438 270 507 b 270 523 259 537 243 537 b 199 537 89 429 49 400 b 50 435 298 781 298 800 b 298 808 291 811 283 811 b 275 811 270 798 266 793 b 214 716 -54 321 -70 262 l -64 246 l -47 248 b -5 303 -12 307 46 362 z m 240 500 b 219 448 151 361 88 361 b 76 361 65 365 55 372 b 112 423 169 477 239 510 z"},"%":{"x_min":0,"x_max":572,"ha":572,"o":"m 537 763 b 537 766 536 782 528 782 b 465 782 60 296 29 211 b 29 201 39 198 46 198 b 51 198 60 213 61 215 b 150 348 255 469 360 589 b 396 630 431 671 471 707 b 488 723 511 735 527 751 b 531 755 534 759 537 763 z m 438 441 b 395 411 353 367 353 310 b 353 278 375 254 407 254 b 461 254 516 305 516 360 b 516 422 455 405 438 441 z m 415 281 b 399 281 380 287 380 306 b 380 328 400 393 426 393 b 450 393 487 386 487 357 b 487 324 449 281 415 281 z m 138 601 b 188 601 232 649 232 698 b 232 730 214 755 180 755 b 134 755 87 693 87 650 b 87 619 108 601 138 601 z m 179 732 b 190 723 201 713 201 698 b 201 669 170 629 140 629 b 129 629 117 637 117 649 b 117 685 151 716 179 732 z"},"m":{"x_min":0,"x_max":440,"ha":440,"o":"m 185 481 b 172 448 125 374 125 344 b 125 332 130 325 141 325 b 170 325 274 413 307 434 b 302 406 271 370 271 341 b 271 325 279 307 297 307 b 322 307 413 351 452 384 b 395 372 344 338 296 335 b 298 365 333 404 333 433 b 333 446 326 458 313 458 b 283 458 185 369 144 350 b 159 380 210 472 210 498 b 210 507 202 516 193 516 b 164 516 108 456 80 440 b 86 456 118 492 118 504 b 118 508 117 513 115 518 b 93 497 -78 292 -78 282 b -78 280 -76 277 -75 275 l -65 270 b -65 270 128 449 179 486 z"},",":{"x_min":0,"x_max":179,"ha":179,"o":"m 4 251 b 37 263 74 298 76 335 l 69 351 l 52 341 b 32 314 17 281 4 251 z"},"n":{"x_min":0,"x_max":293,"ha":293,"o":"m 181 382 b 186 401 198 449 161 449 b 137 449 91 420 68 410 l 65 414 b 71 422 101 457 101 464 b 101 470 97 474 93 478 b 47 434 -15 370 -48 316 l -48 303 l -33 300 b -26 303 -22 309 -16 314 b 36 361 94 401 160 426 b 158 409 154 391 154 374 b 154 297 263 346 300 376 b 195 346 173 349 181 382 z"},"h":{"x_min":0,"x_max":300,"ha":300,"o":"m 319 796 b 275 755 -30 376 -30 325 b -30 316 -20 306 -10 306 b 6 306 160 427 199 445 b 199 429 194 389 202 362 b 210 333 237 327 263 337 b 281 344 299 362 306 376 b 222 336 227 373 229 405 b 231 436 227 471 198 471 b 155 471 55 374 10 350 b 77 467 179 598 261 706 b 278 728 319 759 328 784 l 319 796 z"},"z":{"x_min":0,"x_max":254,"ha":254,"o":"m 161 436 b 145 418 74 346 74 328 b 74 291 165 316 165 250 b 165 133 -69 -126 -193 -126 b -233 -126 -235 -83 -235 -53 l -242 -53 b -247 -70 -254 -87 -254 -105 b -254 -142 -225 -158 -191 -158 b -48 -158 193 109 193 247 b 193 307 147 317 102 333 b 125 356 190 417 190 451 b 190 462 178 470 168 470 b 137 470 -7 407 -7 375 b -7 368 -1 364 6 364 b 8 364 127 434 156 444 z"},"B":{"x_min":0,"x_max":854,"ha":854,"o":"m 612 704 b 509 595 382 429 305 296 b 293 274 276 264 253 259 b 186 245 5 181 5 87 b 5 10 120 0 171 0 b 333 0 637 94 747 225 b 763 244 788 283 788 310 b 788 390 630 393 580 393 b 533 393 487 385 440 385 l 420 385 b 462 437 847 578 847 684 b 847 739 743 749 707 749 b 568 749 147 639 80 511 l 85 505 b 152 511 147 552 191 576 b 324 650 471 681 616 716 z m 181 42 b 219 100 257 162 298 220 b 314 243 341 236 353 257 b 353 266 345 275 340 281 b 352 300 367 327 383 342 b 402 361 603 359 641 359 b 666 359 755 343 755 308 b 755 300 751 293 747 287 b 648 129 342 52 181 42 z m 647 717 b 664 718 681 719 699 719 b 722 719 817 717 817 680 b 817 628 502 460 457 446 b 493 495 648 677 648 703 z m 137 41 b 113 41 42 52 42 88 b 42 151 210 227 258 235 l 152 42 z"},"K":{"x_min":0,"x_max":663,"ha":663,"o":"m 209 424 b 255 517 359 647 430 725 b 432 728 439 734 439 738 b 439 743 432 749 427 750 b 377 747 -35 135 -63 19 l -56 6 l -41 8 b -24 26 -17 55 -5 77 b 15 114 150 351 172 359 b 217 357 364 56 578 56 b 605 56 631 62 654 77 l 650 80 b 458 106 437 118 304 263 b 270 300 230 340 202 381 b 410 515 625 636 846 747 b 853 751 861 754 868 759 l 871 769 l 861 776 b 803 767 311 485 209 424 z"},"R":{"x_min":0,"x_max":833,"ha":833,"o":"m 325 329 b 331 351 348 365 369 373 b 473 412 808 550 808 686 b 808 759 703 767 648 767 b 556 767 4 661 -21 564 l -4 563 b 0 563 56 592 62 595 b 196 661 477 736 632 736 b 665 736 769 734 769 686 b 769 599 453 428 379 418 b 400 452 522 640 528 659 l 522 673 l 508 670 b 461 600 414 528 372 454 b 343 402 316 386 258 380 b 249 379 235 375 235 363 b 235 346 269 331 283 321 b 255 257 105 86 98 51 l 103 35 l 121 37 b 145 59 276 259 304 301 b 414 191 575 71 739 71 b 769 71 855 82 876 102 l 880 119 l 867 127 b 821 119 778 107 730 107 b 575 107 429 225 325 329 z"},"T":{"x_min":0,"x_max":420,"ha":420,"o":"m 711 756 b 765 756 817 742 869 742 b 885 742 901 742 907 761 l 895 776 b 875 787 784 788 757 788 b 596 788 106 717 -9 621 l -11 609 l 1 607 b 230 685 467 756 711 756 z m 110 104 b 130 138 140 174 157 208 b 233 358 328 498 408 645 b 410 649 415 657 415 661 b 415 668 407 675 400 675 b 391 675 388 664 384 658 b 334 572 86 176 83 109 l 92 92 z"},"P":{"x_min":0,"x_max":717,"ha":717,"o":"m 405 731 b 345 644 2 167 -15 108 l -12 91 b -11 88 -8 87 -6 87 b 19 87 308 562 424 719 b 440 740 460 737 484 737 b 557 737 676 712 676 619 b 676 439 403 271 244 271 b 218 271 197 280 183 303 l 169 285 b 170 250 259 242 284 242 b 445 242 708 435 708 613 b 708 744 560 756 463 767 l 459 797 b 438 779 436 764 407 758 b 325 742 21 685 21 573 b 21 538 73 529 100 529 b 125 529 151 535 170 552 l 168 558 b 134 556 70 547 46 575 b 117 679 287 714 405 731 z"},"t":{"x_min":0,"x_max":207,"ha":207,"o":"m -20 271 b -11 300 -3 323 13 349 b 41 393 229 668 262 668 b 344 668 428 655 508 655 b 515 655 524 657 524 666 b 524 680 515 682 503 682 b 424 682 345 688 266 688 b 280 706 373 810 373 820 b 373 823 372 826 370 829 l 361 834 b 325 833 252 691 196 687 b 159 684 -34 682 -49 662 b -42 657 -33 655 -24 655 b 44 655 114 666 182 666 b 187 666 194 664 199 663 b 147 589 -45 356 -45 273 b -45 254 -32 241 -13 241 b 40 241 186 344 219 386 b 142 344 73 287 -13 265 z"},"M":{"x_min":0,"x_max":918,"ha":918,"o":"m 579 -17 b 569 -6 563 7 563 21 b 563 155 946 625 946 693 b 946 706 934 717 921 717 b 848 717 521 373 455 316 b 475 374 559 528 559 575 b 559 589 550 603 535 603 b 474 603 213 309 158 256 b 177 336 428 641 428 711 b 428 726 417 737 402 737 b 360 737 9 488 -4 450 l 1 439 b 106 500 290 684 403 710 b 367 641 86 221 86 187 b 86 181 88 175 91 171 l 101 166 b 137 168 432 521 532 572 b 513 520 407 314 407 285 b 407 278 411 271 416 267 b 419 266 426 263 429 263 b 467 263 850 683 909 676 b 828 541 530 157 530 24 b 530 5 534 -21 558 -21 b 565 -21 572 -19 579 -17 z"},"g":{"x_min":0,"x_max":274,"ha":274,"o":"m 119 267 b 173 304 252 347 280 374 l 276 379 b 234 364 189 336 151 314 b 174 363 202 406 207 414 b 226 444 244 475 244 487 b 244 492 239 497 234 497 b 221 497 183 465 172 456 b 160 465 146 475 130 475 b 93 475 -5 409 -5 370 b -5 358 7 348 19 348 b 46 348 127 397 152 413 l 170 398 b 150 365 125 314 94 292 b -15 212 -281 48 -281 -104 b -281 -124 -268 -140 -248 -140 b -139 -140 65 183 111 257 z m 66 233 b 21 167 -167 -118 -249 -113 b -252 -108 -255 -102 -255 -96 b -255 -90 -253 -84 -250 -78 b -187 63 -64 156 62 238 z m 150 442 b 117 413 65 378 21 372 l 20 377 b 38 405 93 454 128 454 b 137 454 145 449 150 442 z m 189 442 l 194 439 b 191 432 187 425 183 419 l 177 422 z"},"j":{"x_min":0,"x_max":125,"ha":125,"o":"m -37 283 b 2 343 40 404 79 465 b 79 471 71 475 65 475 b 59 475 53 462 50 458 b 1 382 -50 307 -102 233 b -153 161 -413 -49 -413 -127 b -413 -137 -403 -146 -392 -146 b -377 -146 -352 -124 -341 -113 b -248 -22 -167 135 -78 212 b -10 271 65 327 137 381 b 74 358 19 319 -37 283 z m -223 70 b -268 11 -314 -49 -368 -101 b -350 -54 -262 38 -223 70 z m 117 547 b 127 560 138 573 147 587 l 144 599 l 132 598 b 120 586 109 574 99 561 l 100 548 l 108 543 z"},"i":{"x_min":0,"x_max":169,"ha":169,"o":"m 96 466 b 90 467 82 476 75 476 b 51 476 -16 367 -16 340 b -16 321 0 308 18 308 b 69 308 146 337 175 379 b 135 366 51 331 23 331 b 17 331 11 333 5 336 b 23 387 60 426 96 466 z m 146 569 b 129 552 113 536 97 517 l 98 504 l 108 500 b 126 516 146 533 156 561 z"},"y":{"x_min":0,"x_max":349,"ha":349,"o":"m 354 379 b 311 352 268 325 224 299 b 263 382 297 453 297 476 b 297 491 286 506 270 506 b 231 506 58 378 28 378 b 25 378 23 378 21 380 b 30 416 61 440 79 472 l 60 471 b 45 452 -4 398 -4 376 b -4 363 6 351 19 351 b 51 351 223 464 270 486 l 275 481 b 260 424 226 374 198 322 b 162 256 -170 57 -170 -70 b -170 -83 -158 -90 -147 -90 b -60 -90 83 124 194 249 b 202 255 209 261 217 266 b 251 288 335 345 358 374 z m 123 216 b 88 148 -72 -37 -143 -60 b -110 26 45 166 123 216 z"},"@":{"x_min":0,"x_max":701,"ha":701,"o":"m 340 346 b 340 312 348 275 391 275 b 477 275 610 422 610 508 b 610 617 495 650 406 650 b 229 650 -16 505 -16 306 b -16 186 100 135 204 135 b 274 135 655 206 655 280 b 655 286 649 293 642 293 b 635 293 517 234 496 226 b 403 190 305 167 205 167 b 116 167 14 201 14 306 b 14 488 248 623 409 623 b 490 623 583 599 583 501 b 583 434 458 302 391 302 b 378 302 368 311 368 325 b 368 342 375 357 375 373 b 375 381 369 388 361 388 b 341 388 259 318 232 318 b 227 318 223 320 219 323 l 219 328 b 219 376 272 471 327 471 b 359 471 381 440 388 412 l 401 398 b 408 397 413 403 413 410 b 413 452 370 497 327 497 b 260 497 190 391 190 329 b 190 306 204 291 227 291 b 258 291 314 328 340 346 z"},".":{"x_min":0,"x_max":171,"ha":171,"o":"m 63 350 b 63 359 54 368 45 368 b 31 368 16 335 16 324 b 16 317 21 314 27 314 b 43 314 63 335 63 350 z"},"p":{"x_min":0,"x_max":277,"ha":277,"o":"m 80 488 b 49 452 -277 3 -279 -9 l -272 -27 l -254 -26 b -192 23 -17 331 43 331 b 81 331 96 329 131 348 b 178 373 288 464 288 521 b 288 528 287 536 283 542 l 269 549 b 199 548 64 376 14 357 b 35 390 77 447 88 482 z m 264 520 b 236 444 130 367 53 349 b 84 393 213 508 264 520 z"},"X":{"x_min":0,"x_max":566,"ha":566,"o":"m 371 539 b 370 597 377 656 377 714 b 377 723 377 732 375 741 l 364 755 b 353 758 353 741 352 734 b 346 679 355 524 318 491 b 239 420 -30 182 -62 86 l -60 74 l -47 75 b 68 222 187 345 328 467 l 341 472 b 341 401 328 60 427 60 b 441 60 453 66 463 75 b 426 85 407 93 395 133 b 370 220 370 393 370 487 b 370 536 731 784 787 784 b 791 784 793 780 794 776 l 811 779 l 822 799 l 810 812 l 801 812 b 706 812 451 604 371 539 z"},"*":{"x_min":0,"x_max":335,"ha":335,"o":"m 201 605 b 177 569 153 533 128 498 l 133 494 b 178 527 211 572 243 617 l 276 550 b 278 557 279 564 279 572 b 279 594 268 614 264 636 b 308 656 356 669 397 695 l 391 695 b 352 695 315 683 278 671 b 283 683 303 720 303 731 b 303 739 299 745 293 749 b 271 727 269 694 246 673 b 230 697 209 746 176 746 b 194 714 219 686 229 650 b 203 639 52 573 52 553 l 52 545 b 104 560 149 591 201 605 z"},"Y":{"x_min":0,"x_max":671,"ha":671,"o":"m 534 399 b 553 437 660 623 660 648 b 660 653 657 658 654 662 l 650 662 b 607 662 382 390 223 390 b 196 390 183 405 183 432 b 183 529 269 637 322 714 l 309 715 b 266 715 157 497 157 434 b 157 391 180 362 224 362 b 347 362 520 533 611 606 b 579 540 544 464 503 404 b 497 395 492 393 481 390 b 417 374 359 354 300 324 b 167 257 -69 87 -69 -83 b -69 -127 -46 -169 3 -169 b 249 -169 481 369 538 377 b 570 382 603 385 635 389 b 603 402 568 394 534 399 z m 474 360 b 473 357 472 352 470 349 b 399 226 165 -142 6 -142 b -29 -142 -39 -109 -39 -80 b -39 105 314 338 474 360 z"},"c":{"x_min":0,"x_max":298,"ha":298,"o":"m 303 383 b 220 359 123 341 36 356 b 29 357 21 361 17 370 l 18 376 b 19 389 30 398 37 405 b 79 445 132 467 184 470 b 205 471 226 461 246 467 l 242 485 b 233 490 223 495 215 497 b 158 507 3 455 -7 376 b -11 342 19 331 41 327 b 139 310 221 329 306 376 z"},"!":{"x_min":0,"x_max":243,"ha":243,"o":"m 70 288 b 111 346 141 415 177 477 b 226 562 276 640 331 721 l 331 741 b 324 741 317 741 311 737 b 282 720 60 337 59 303 z m 71 246 b 71 252 66 260 59 260 b 49 260 25 243 18 236 l 14 227 b 14 219 21 212 29 212 b 44 212 71 229 71 246 z"},"/":{"x_min":0,"x_max":301,"ha":301,"o":"m -23 182 b -6 189 -3 195 7 209 b 137 399 260 589 413 762 l 417 767 l 417 786 l 397 788 b 351 757 -28 236 -28 195 b -28 190 -26 186 -23 182 z"},"6":{"x_min":0,"x_max":458,"ha":458,"o":"m 140 407 l 151 413 b 206 452 265 507 338 507 b 356 507 372 500 372 480 b 372 379 192 266 100 266 b 54 266 28 297 28 342 b 28 501 270 693 406 744 b 418 749 431 751 443 756 l 454 767 l 440 778 b 286 756 1 514 1 341 b 1 272 42 241 108 241 b 208 241 400 364 400 474 b 400 514 378 535 337 535 b 259 535 187 482 137 426 l 134 410 z"},"r":{"x_min":0,"x_max":267,"ha":267,"o":"m 98 500 b 75 500 -51 323 -51 298 b -51 290 -43 286 -36 286 b -31 286 -24 296 -21 300 b 24 357 170 492 245 495 b 250 480 253 460 274 460 b 282 460 285 466 285 474 b 285 492 278 525 254 525 b 208 525 93 437 50 408 l 47 411 b 68 441 90 470 111 500 z"},"2":{"x_min":0,"x_max":538,"ha":538,"o":"m 477 348 b 456 353 435 357 414 357 b 301 357 188 301 72 301 b 63 301 40 305 40 317 b 40 409 509 614 509 724 b 509 763 456 776 425 776 b 328 776 53 704 53 577 b 53 568 65 551 74 551 b 81 551 88 552 94 555 l 91 572 b 88 576 83 582 83 587 b 83 595 88 601 92 606 b 166 693 298 746 411 746 b 428 746 476 746 476 721 b 476 640 3 434 3 315 b 3 281 44 267 72 267 b 202 267 354 316 482 342 z"},"9":{"x_min":0,"x_max":442,"ha":442,"o":"m 482 751 l 479 741 b 430 620 218 215 53 215 b 7 215 -25 264 -41 302 b -43 295 -43 287 -43 279 b -43 226 -2 181 52 181 b 254 181 449 600 502 749 b 503 752 507 763 507 765 b 507 772 505 782 496 782 b 479 782 446 753 432 743 b 432 776 423 798 387 798 b 314 798 111 691 111 610 b 111 588 130 573 151 573 b 238 573 410 699 478 754 z m 135 609 b 135 670 316 779 373 779 b 387 779 415 775 415 758 b 415 700 209 600 158 600 b 150 600 143 601 136 603 z"}," ":{"x_min":0,"x_max":292,"ha":292,"o":""},"I":{"x_min":0,"x_max":611,"ha":611,"o":"m 766 692 b 761 667 754 664 785 664 b 800 664 850 666 850 686 b 850 719 769 720 747 720 b 618 720 236 638 124 573 l 116 557 b 121 556 126 554 131 554 b 140 554 149 559 157 562 b 284 611 414 641 546 671 b 543 665 540 659 536 653 b 435 506 328 363 226 216 b 201 180 185 165 140 162 b 91 159 30 139 -18 127 b -31 124 -46 121 -46 105 b -46 96 -37 95 -30 95 b -1 95 31 108 59 113 b 172 133 301 165 415 165 b 436 165 457 159 478 159 b 496 159 553 161 553 185 b 553 204 531 205 517 205 b 424 205 325 188 232 177 l 589 678 b 637 687 686 693 735 693 l 766 692 z"},"H":{"x_min":0,"x_max":709,"ha":709,"o":"m 782 735 b 694 599 349 70 350 -38 l 356 -49 l 370 -46 b 399 -8 415 49 438 92 b 558 321 689 548 835 762 b 848 780 932 830 932 836 b 932 844 928 854 919 854 b 912 854 903 847 896 844 l 877 853 b 779 730 438 583 293 536 b 308 567 425 761 425 773 b 425 776 424 779 422 782 l 413 787 b 370 745 283 528 240 514 b 222 508 17 454 17 433 b 17 420 49 405 49 345 b 49 259 1 165 1 96 b 1 82 9 76 22 76 b 45 76 228 422 256 471 b 265 486 276 497 292 504 b 460 575 622 648 782 735 z m 57 179 b 65 231 80 282 80 335 b 80 366 74 397 61 426 l 231 479 z"},"4":{"x_min":0,"x_max":432,"ha":432,"o":"m 81 549 b 118 628 180 684 221 757 l 222 772 l 205 772 b 172 746 55 589 55 550 b 55 524 77 513 100 513 b 200 513 324 588 417 619 b 395 539 173 304 173 221 l 174 208 b 193 221 204 238 216 258 b 310 411 407 562 525 698 b 529 703 534 708 537 714 l 534 728 l 522 730 b 485 708 472 661 430 647 b 382 632 137 542 109 542 b 99 542 90 545 81 549 z"},"D":{"x_min":0,"x_max":1028,"ha":1028,"o":"m 315 70 b 486 104 1001 307 1001 554 b 1001 715 753 731 647 731 b 579 731 181 697 159 621 b 161 617 166 610 170 610 b 179 610 216 628 226 632 b 342 677 466 689 587 697 b 575 683 547 655 547 636 b 547 607 277 174 239 115 b 222 89 188 97 161 97 b 82 97 61 101 6 159 l -4 167 b 4 47 117 58 202 52 b 195 37 188 24 183 8 l 190 -12 l 208 -10 b 215 -4 242 47 249 58 z m 279 107 b 333 226 537 561 616 675 b 630 694 639 698 662 698 b 742 698 968 679 968 558 b 968 349 443 117 286 105 z"},"^":{"x_min":0,"x_max":179,"ha":179,"o":"m 139 649 b 128 692 148 706 163 740 l 159 752 l 148 752 b 104 721 66 682 23 650 l 22 638 l 34 635 b 62 649 87 670 111 689 b 113 667 109 644 137 638 z"},"0":{"x_min":0,"x_max":368,"ha":368,"o":"m 165 671 b 111 589 -5 452 -5 353 b -5 314 10 272 56 272 b 195 272 436 527 436 666 b 436 730 391 745 337 745 b 310 745 286 742 260 738 l 257 742 l 351 820 b 348 821 342 824 340 824 b 327 824 247 754 232 742 b 178 699 112 687 60 634 l 62 631 l 163 675 z m 335 714 b 377 706 405 705 405 652 b 405 536 183 310 69 310 b 40 310 31 331 31 356 b 31 434 171 675 231 690 b 266 699 300 705 335 714 z"},"F":{"x_min":0,"x_max":654,"ha":654,"o":"m 554 389 b 538 404 518 409 496 409 b 416 409 338 402 260 392 b 310 476 361 559 408 645 b 410 649 415 657 415 661 b 415 668 407 675 400 675 b 391 675 388 664 384 658 b 360 616 289 502 222 388 l 145 377 b 133 375 121 376 121 360 b 121 355 129 350 133 350 b 139 350 144 352 150 353 l 207 362 b 142 249 84 141 83 109 l 92 92 l 110 104 b 130 138 140 174 157 208 b 184 262 214 315 244 367 b 315 375 387 380 458 380 b 490 380 523 375 554 389 z m 711 756 b 765 756 817 742 869 742 b 885 742 901 742 907 761 l 895 776 b 875 787 784 788 757 788 b 596 788 106 717 -9 621 l -11 609 l 1 607 b 230 685 467 756 711 756 z"},"k":{"x_min":0,"x_max":328,"ha":328,"o":"m -18 317 b 10 343 24 379 51 406 b 93 374 176 291 227 291 b 242 291 253 298 264 308 b 159 337 154 353 72 426 b 144 459 220 488 291 524 b 289 528 282 536 276 536 b 273 536 111 475 93 468 b 145 546 202 621 260 696 b 284 730 317 755 341 791 b 341 794 342 799 342 802 l 341 811 l 333 816 b 302 814 75 457 31 438 b 16 418 -15 356 -25 332 l -18 317 z"},"u":{"x_min":0,"x_max":362,"ha":362,"o":"m 373 379 b 358 373 235 331 235 370 b 235 394 270 452 270 458 b 270 462 268 467 265 469 l 255 473 b 250 473 85 352 6 341 b 23 386 48 422 69 464 l 64 473 l 57 473 b 32 445 -13 386 -13 347 b -13 329 -1 319 17 319 b 68 319 171 391 219 418 b 216 402 210 387 210 371 b 210 288 341 341 373 379 z"},"U":{"x_min":0,"x_max":683,"ha":683,"o":"m 452 167 b 542 392 686 573 834 761 b 836 763 842 774 842 777 b 842 782 840 785 837 788 l 828 792 b 814 791 242 192 56 192 b 30 192 22 214 22 237 b 22 336 169 574 233 648 l 236 665 l 219 665 b 139 598 -9 345 -9 238 b -9 193 4 161 55 161 b 197 161 528 468 632 563 b 618 501 420 281 420 157 b 420 142 428 126 445 125 b 454 129 466 136 467 147 b 467 156 458 162 452 167 z"},"o":{"x_min":0,"x_max":278,"ha":278,"o":"m 191 463 b 210 467 229 469 248 469 b 270 469 292 466 313 461 b 325 458 336 441 344 441 b 350 441 357 450 357 456 b 357 490 270 495 246 495 b 218 495 89 497 77 476 l 83 452 b 47 429 -30 368 -30 321 b -30 303 -16 295 0 295 b 71 295 189 388 191 463 z m 163 446 b 139 372 60 330 -11 314 b 12 386 85 436 153 461 l 160 460 z"},"N":{"x_min":0,"x_max":707,"ha":707,"o":"m 139 269 b 183 360 355 586 355 673 b 355 695 338 702 319 702 b 258 702 26 554 7 496 l 14 483 l 29 493 b 109 553 228 669 332 675 b 291 530 63 238 47 161 l 55 145 l 70 147 b 230 294 466 602 668 676 b 671 677 683 681 685 681 b 691 681 696 679 701 676 b 691 637 671 605 651 571 b 589 463 397 157 397 39 b 397 24 408 -11 428 -11 b 438 -11 446 0 451 8 b 439 18 432 33 432 49 b 432 176 728 574 728 681 b 728 697 716 710 700 710 b 572 710 226 357 142 266 z"},"+":{"x_min":0,"x_max":390,"ha":390,"o":"m 183 429 b 199 470 227 523 234 566 l 227 576 l 217 573 b 191 527 173 476 152 428 b 127 426 43 431 35 405 b 48 397 62 396 76 396 b 95 396 113 398 131 393 b 124 377 74 282 74 274 b 74 266 81 260 89 260 b 107 260 156 376 167 397 b 203 396 239 391 274 391 b 285 391 296 394 303 403 b 291 430 211 427 183 429 z"},"G":{"x_min":0,"x_max":687,"ha":687,"o":"m 748 667 b 657 543 573 414 478 293 b 407 326 331 363 250 363 b 112 363 3 253 3 114 b 3 43 42 -41 124 -41 b 271 -41 396 160 487 252 b 518 239 537 215 568 202 l 587 208 b 579 242 534 257 506 274 b 517 319 813 687 845 762 l 843 779 l 826 779 b 786 751 751 714 715 681 b 708 734 655 746 610 746 b 496 746 271 587 271 467 b 271 432 297 414 329 414 b 429 414 668 603 743 672 z m 457 265 b 393 184 234 -10 123 -10 b 60 -10 34 64 34 117 b 34 238 129 331 249 331 b 306 331 413 301 457 265 z m 701 669 b 629 608 418 441 325 441 b 312 441 298 448 298 463 b 298 573 505 719 608 719 b 667 719 669 709 701 669 z"},"q":{"x_min":0,"x_max":328,"ha":328,"o":"m -26 -29 b -26 151 301 456 301 486 b 301 489 299 492 297 495 l 287 500 b 276 499 207 454 193 445 b 186 465 174 480 151 480 b 105 480 -11 403 -11 355 b -11 344 -3 334 9 334 b 61 334 183 411 230 441 b 166 345 -48 134 -48 21 b -48 2 -39 -15 -26 -29 z m 174 435 b 143 410 55 361 15 360 b 30 395 106 456 145 456 b 158 456 167 446 174 435 z"},"d":{"x_min":0,"x_max":306,"ha":306,"o":"m 217 453 b 169 360 106 267 70 168 l 74 151 l 88 156 b 113 196 130 236 151 277 b 234 438 330 593 437 739 b 451 758 467 778 475 800 b 475 808 468 812 461 812 b 453 812 446 799 442 793 b 374 693 306 586 219 502 b 199 482 -16 432 -16 339 b -16 325 -4 317 9 317 b 65 317 167 420 211 458 z m 15 347 b 49 393 98 421 149 444 b 128 408 55 359 15 347 z"},"1":{"x_min":0,"x_max":436,"ha":436,"o":"m 158 319 b 209 438 393 678 479 779 l 486 788 l 485 804 l 470 809 b 447 799 428 782 407 769 b 306 709 204 662 98 611 l 91 598 l 103 589 b 160 590 350 713 378 711 b 293 591 197 468 135 335 b 118 299 -34 261 -79 247 b -85 245 -101 241 -101 232 b -101 229 -101 227 -100 224 l -90 217 b -28 222 45 261 108 275 l 110 262 b 178 311 323 318 408 328 b 395 339 380 349 363 349 b 293 349 226 334 158 319 z"},"5":{"x_min":0,"x_max":480,"ha":480,"o":"m -20 296 b -32 284 -42 268 -42 250 b -42 209 7 196 40 196 b 151 196 402 324 402 456 b 402 582 120 571 120 611 b 120 639 192 720 220 726 b 328 750 452 789 564 789 b 583 789 600 786 619 782 b 619 772 613 763 613 753 b 613 750 614 747 616 744 b 631 750 650 760 650 778 b 650 813 608 815 583 815 b 463 815 341 779 224 755 l 219 775 b 218 777 216 777 214 777 b 207 777 203 771 199 766 b 175 733 63 714 63 694 b 63 692 63 690 64 688 b 69 686 73 686 78 686 b 100 686 119 702 142 701 b 127 678 92 636 92 608 b 92 532 373 565 373 458 b 373 340 119 231 21 231 b -18 231 -21 266 -20 296 z"}}}
